<?xml version="1.0" encoding="utf-8"?>
<!-- Generator: Adobe Illustrator 25.2.1, SVG Export Plug-In . SVG Version: 6.00 Build 0)  -->
<!DOCTYPE svg PUBLIC "-//W3C//DTD SVG 1.0//EN" "http://www.w3.org/TR/2001/REC-SVG-20010904/DTD/svg10.dtd" [
	<!ENTITY st0 "fill:#2767B2;">
]>
<svg version="1.0" id="Layer_1" xmlns="http://www.w3.org/2000/svg" xmlns:xlink="http://www.w3.org/1999/xlink" x="0px" y="0px"
	 viewBox="0 0 281.9 70" style="enable-background:new 0 0 281.9 70;" xml:space="preserve">
<g>
	<path style="&st0;" d="M281.9,34.9c0-9.9,0-19.7,0-29.6c0-2-0.9-3.6-2.6-4.6c-0.7-0.4-1.5-0.6-2.4-0.7c-0.2,0-0.3,0-0.5,0
		c-19.8,0-39.7,0-59.5,0c-1.8,0-3.3,0.6-4.5,2c-0.8,0.9-1.1,1.9-1.2,3.1c0,0.2,0,0.4,0,0.6c0,19.6,0,39.1,0,58.7
		c0,0.8,0.1,1.5,0.3,2.2c0.6,2.2,2.1,3.3,4.4,3.4c0.2,0,0.4,0,0.6,0c19.6,0,39.1,0,58.7,0c1.5,0,3-0.3,4.2-1.2
		c1.2-0.8,2.1-1.9,2.4-3.4c0.1-0.4,0.1-0.8,0.1-1.2C281.9,54.5,281.9,44.7,281.9,34.9z M247.8,31.3c0.2,0,0.3-0.2,0.4-0.3
		c0.3-0.4,0.6-0.9,1.1-1.2c1.3-1.1,2.8-2,4.4-2.6c3.2-1.1,6.5-1.1,9.8-0.4c3.8,0.8,6.2,3.2,7.3,6.9c0.7,2.3,0.9,4.6,0.9,7
		c0.1,6.1,0,12.1,0,18.2c0,0.2,0,0.4,0,0.5c0,0.3-0.2,0.5-0.5,0.5c-0.2,0-0.4,0-0.6,0c-2.5,0-5,0-7.6,0c-1.3,0-1.3,0-1.3-1.3
		c0-5.3,0-10.6,0-15.9c0-1.4-0.2-2.8-0.8-4.1c-0.9-2.1-2.3-3.5-4.7-3.7c-0.7-0.1-1.3,0-1.9,0.1c-2.1,0.3-3.7,1.2-4.8,3.1
		c-0.6,1-0.9,2-1.1,3.1c-0.3,1.8-0.2,3.6-0.2,5.3c0,3.4,0,6.8,0,10.2c0,0.8,0,1.7,0,2.5c0,0.5-0.1,0.6-0.7,0.7c-0.2,0-0.4,0-0.6,0
		c-2.5,0-4.9,0-7.4,0c-1.3,0-1.3,0-1.3-1.2c0-10.3,0-20.5,0-30.8c0-0.2,0-0.4,0-0.5c0-0.5,0.1-0.6,0.7-0.6c0.1,0,0.2,0,0.2,0
		c2.5,0,5,0,7.6,0c0.8,0,0.9,0,0.9,0.9c0,1,0,2,0,2.9C247.7,30.8,247.6,31,247.8,31.3z M231.4,43.3c0,5.2,0,10.5,0,15.7
		c0,0.9,0,0.9-0.9,0.9c-2.7,0-5.4,0-8.1,0c-0.8,0-0.9-0.1-0.9-0.9c0-0.1,0-0.2,0-0.2c0-10.3,0-20.6,0-31c0-0.2,0-0.4,0-0.6
		c0-0.3,0.2-0.5,0.5-0.5c0.2,0,0.3,0,0.5,0c2.6,0,5.3,0,7.9,0c1,0,1,0,1,1c0,0.1,0,0.2,0,0.3C231.4,33.1,231.4,38.2,231.4,43.3z
		 M232.7,15c0.1,3.6-2.9,6.3-6.2,6.2c-3.3,0-6.2-2.5-6.2-6.3c0-3.4,2.7-6,6.2-6.1C230.2,8.8,232.8,12.1,232.7,15z"/>
	<path style="&st0;" d="M191.2,30.4c-0.8-0.7-1.4-1.4-2.2-1.9c-1.8-1.2-3.9-1.9-6-2.2c-2.6-0.3-5.1-0.2-7.6,0.6
		c-2.7,0.9-5,2.4-6.9,4.5c-1.9,2.2-3.1,4.8-3.7,7.6c-0.4,1.8-0.5,3.7-0.4,5.5c0.1,2.1,0.5,4.2,1.3,6.2c1.5,3.5,3.8,6.2,7.3,8
		c2.9,1.4,5.9,1.9,9.1,1.5c1.6-0.2,3.1-0.4,4.7-0.9c1.8-0.6,3.3-1.5,4.6-2.8c0.1-0.1,0.2-0.3,0.4-0.3c0.2,0.2,0.1,0.4,0.1,0.6
		c0,0.8,0,1.5,0,2.3c0,0.7,0.1,0.8,0.8,0.8c0.2,0,0.4,0,0.5,0c2.3,0,4.6,0,6.9,0c0.2,0,0.4,0,0.5,0c0.6,0,0.7-0.1,0.7-0.7
		c0-0.1,0-0.3,0-0.4c0-15.9,0-31.8,0-47.7c0-0.1,0-0.1,0-0.2c0-1-0.1-1.1-1.1-1.1c-2.7,0-5.4,0-8,0c-0.1,0-0.3,0-0.4,0
		c-0.5,0-0.6,0.1-0.7,0.6c0,0.2,0,0.5,0,0.7c0,6,0,12.1,0,18.1C191.3,29.7,191.3,30,191.2,30.4z M183.2,33.8c0.6,0,1.4,0.1,2.3,0.3
		c2.7,0.7,4.7,2.3,5.7,4.9c1,2.5,1,5.1,0.2,7.7c-0.6,2-1.8,3.7-3.7,4.7c-2.3,1.3-4.8,1.6-7.4,1c-2.4-0.6-4.2-2-5.2-4.2
		c-1.5-2.9-1.5-6-0.5-9.1c0.5-1.3,1.2-2.5,2.3-3.4C178.6,34.3,180.6,33.8,183.2,33.8z"/>
	<path style="&st0;" d="M127.4,26.7c-0.2-0.2-0.5-0.1-0.7-0.1c-3.3,0-6.7,0-10,0c-0.6,0-1.1,0.2-1.5,0.7c-2.2,2.5-4.4,5.1-6.6,7.6
		c-1.2,1.4-2.5,2.8-3.7,4.2c-0.1,0.2-0.2,0.3-0.5,0.4c-0.2-0.2-0.1-0.4-0.1-0.6c0-1.5,0-3,0-4.6c0-7.7,0-15.4,0-23.1
		c0-1.2,0-1.3-1.3-1.3c-2.6,0-5.2,0-7.8,0c-0.2,0-0.4,0-0.5,0c-0.4,0-0.6,0.2-0.6,0.6c0,0.2,0,0.4,0,0.6c0,15.9,0,31.7,0,47.6
		c0,1.2,0,1.2,1.2,1.2c2.6,0,5.2,0,7.8,0c0.2,0,0.4,0,0.5,0c0.5,0,0.6-0.1,0.6-0.7c0-0.2,0-0.5,0-0.7c0-4.6,0-9.2,0-13.9
		c0-0.3,0-0.6,0-0.9c0.3-0.1,0.3,0.1,0.4,0.3c3.4,4.6,6.8,9.1,10.2,13.7c0.4,0.5,0.8,1.1,1.2,1.6c0.3,0.4,0.6,0.6,1.1,0.6
		c3.5,0,7,0,10.5,0c0.1,0,0.2,0,0.2,0c0.4,0,0.5-0.2,0.2-0.5c-0.5-0.7-1.1-1.4-1.6-2.1c-2.9-3.8-5.9-7.5-8.8-11.3
		c-1-1.3-2-2.5-3-3.8c-0.4-0.6-0.4-0.6,0-1.1c1.2-1.4,2.4-2.7,3.7-4.1c2.1-2.3,4.1-4.6,6.2-7c0.8-0.9,1.7-1.9,2.5-2.8
		C127.2,27.2,127.4,27,127.4,26.7z"/>
	<path style="&st0;" d="M63.4,31.1c-0.2-0.2-0.1-0.5-0.1-0.7c0-1,0-2,0-2.9c0-0.7-0.1-0.8-0.8-0.8c-2.7,0-5.4,0-8,0
		c-0.6,0-0.7,0.1-0.7,0.7c0,0.2,0,0.4,0,0.5c0,10.3,0,20.5,0,30.8c0,1.3,0,1.3,1.3,1.3c2.5,0,5.1,0,7.6,0c0.2,0,0.5,0,0.7,0
		c0.4,0,0.5-0.2,0.5-0.5c0-0.3,0-0.5,0-0.8c0-4.9,0-9.8,0-14.7c0-1.8,0.3-3.6,1.2-5.3c1.4-2.7,4.4-3.8,7-3.5
		c2.2,0.3,3.5,1.5,4.3,3.4c0.6,1.4,0.7,2.8,0.7,4.3c0,5.3,0,10.5,0,15.8c0,1.4,0,1.4,1.4,1.4c2.5,0,5,0,7.5,0c0.2,0,0.4,0,0.5,0
		c0.6,0,0.7-0.1,0.8-0.7c0-0.2,0-0.3,0-0.5c0-6.2,0-12.4,0-18.6c0-2.6-0.4-5.1-1.4-7.5c-1.1-2.6-3-4.5-5.7-5.5
		c-4.2-1.4-8.4-1.3-12.5,0.6c-1.5,0.7-2.9,1.7-3.9,3.1C63.6,30.9,63.5,31.1,63.4,31.1z"/>
	<path style="&st0;" d="M127.5,42.7c-0.1,3,0.5,5.9,1.7,8.6c0.7,1.5,1.6,2.8,2.7,4c2.9,3.1,6.5,4.6,10.7,5.1c3.4,0.3,6.7,0,9.9-1
		c2.6-0.8,4.9-2,6.8-4c0.1-0.1,0.2-0.2,0.3-0.3c0.3-0.4,0.3-0.5-0.1-0.8c-0.7-0.6-1.4-1.2-2.2-1.8c-1.1-0.9-2.1-1.7-3.2-2.6
		c-0.5-0.4-0.5-0.4-0.9,0.1c-2.6,2.8-5.8,3.9-9.5,3.6c-2.5-0.3-4.4-1.6-5.6-3.8c-0.4-0.7-0.7-1.5-0.9-2.3c0-0.2-0.1-0.5-0.1-0.7
		c0-0.3,0.2-0.4,0.4-0.4c0.3,0,0.5,0,0.8,0c7.1,0,14.3,0,21.4,0c1.2,0,1.2,0,1.3-1.1c0.1-0.7,0.1-1.4,0-2.1c-0.1-3-0.6-6-2-8.8
		c-2.1-4.2-5.5-6.8-10.1-7.7c-3.9-0.8-7.8-0.5-11.6,0.8c-3.2,1.1-5.9,3.1-7.6,6.1c-1.1,1.9-1.8,3.9-2.1,6.1
		C127.6,40.6,127.5,41.7,127.5,42.7z M144.2,40c-2.1,0-4.2,0-6.3,0c-0.7,0-0.8-0.1-0.7-0.7c0.6-2.7,2.1-4.8,4.7-5.8
		c3.3-1.2,6.8-0.3,8.6,3c0.5,0.9,0.8,1.8,0.8,2.8c0,0.5-0.1,0.6-0.6,0.7c-0.2,0-0.4,0-0.6,0C148.1,40,146.2,40,144.2,40z"/>
	<path style="&st0;" d="M0,34.9c0,7.9,0,15.8,0,23.7C0,60,0,60,1.3,60c9.2,0,18.5,0,27.7,0c1.3,0,1.3,0,1.3-1.2c0-2.6,0-5.1,0-7.7
		c0-0.2,0-0.5,0-0.7c0-0.3-0.2-0.5-0.5-0.5c-0.3,0-0.5,0-0.8,0c-5.8,0-11.7,0-17.5,0c-1.2,0-1.2,0-1.2-1.2c0-12.4,0-24.9,0-37.3
		c0-1.4,0-1.4-1.4-1.4c-2.5,0-5,0-7.6,0c-0.2,0-0.4,0-0.5,0C0.1,10,0,10.1,0,10.7c0,0.3,0,0.5,0,0.8C0,19.3,0,27.1,0,34.9z"/>
	<path style="&st0;" d="M37,43.3c0,5.2,0,10.3,0,15.5c0,1.2,0,1.2,1.2,1.2c2.6,0,5.2,0,7.8,0c0.2,0,0.3,0,0.5,0
		c0.6,0,0.7-0.1,0.7-0.7c0-0.2,0-0.4,0-0.6c0-10.2,0-20.5,0-30.7c0-1.3,0-1.3-1.3-1.3c-2.6,0-5.1,0-7.7,0c-0.2,0-0.5,0-0.7,0
		c-0.3,0-0.5,0.2-0.5,0.5c0,0.3,0,0.5,0,0.8C37,33,37,38.2,37,43.3z"/>
	<path style="&st0;" d="M48.3,15c0-3.4-2.7-6-6.1-6c-3.2,0-6,2.6-6,6c0,3.8,3.1,6.1,6.1,6.1C45.7,21.1,48.4,18.1,48.3,15z"/>
</g>
</svg>
